<?xml version="1.0" encoding="UTF-8"?>
<svg width="135px" height="135px" viewBox="0 0 135 135" version="1.1" xmlns="http://www.w3.org/2000/svg" xmlns:xlink="http://www.w3.org/1999/xlink">
    <!-- Generator: Sketch 53.2 (72643) - https://sketchapp.com -->
    <title>Group 5</title>
    <desc>Created with Sketch.</desc>
    <defs>
        <path d="M49.9532127,2.02237223 C47.9633885,0.0498407072 44.966174,-0.542106981 42.3619809,0.523109458 C39.7577878,1.5883259 38.0607496,4.10040584 38.0637865,6.88561079 L38.0637865,27.5432204 C27.0047774,21.8198443 13.3903934,24.671192 5.63160564,34.3357 C-2.1271821,44.000208 -1.84026276,57.7498286 6.31510478,67.0900413 C14.4704723,76.4302539 28.1922328,78.7245514 39.0030777,72.5555159 C40.5826006,75.2488055 43.7941873,76.5599504 46.8367622,75.7536533 C49.8793371,74.9473563 51.996117,72.2241685 52,69.1112687 L52,6.88386111 C51.998264,5.05903445 51.2618353,3.30988342 49.9532127,2.02237223 L49.9532127,2.02237223 Z M38.0637865,55.4060168 C37.6388479,55.4313872 37.1944331,55.4471343 36.7358536,55.4532582 C35.4476412,58.0695237 33.2291799,60.1250775 30.5043069,61.2272057 C30.2489209,60.9135583 29.927495,60.6586165 29.5623598,60.4800919 C29.5817156,59.6030704 29.2495017,58.7540365 28.6381185,58.1180224 C28.665906,57.9776717 28.6798408,57.8349868 28.6797271,57.6919751 C28.6888416,57.1297882 28.4649515,56.5883633 28.060025,56.1933733 C28.0811213,56.0631811 28.091778,55.9315457 28.0918954,55.799695 C28.12217,54.8000307 27.4623983,53.9074235 26.489523,53.6318402 C26.1971739,52.6552852 26.0434368,51.64335 26.0327141,50.6250132 C26.0221958,51.6459439 25.8617612,52.659959 25.5564288,53.6353395 C24.5910756,53.9188165 23.93934,54.8084156 23.968221,55.8031944 C23.9670414,55.8615852 23.9691102,55.919996 23.974418,55.9781625 C23.4119873,56.4948698 23.112348,57.2327211 23.1572966,57.9902957 C23.1591385,58.2134624 23.1834563,58.4358937 23.2298903,58.6542997 C22.706673,59.1982349 22.4183563,59.9221299 22.4260482,60.6725568 C22.4262185,60.7924464 22.433609,60.9122197 22.4481805,61.0312414 C22.2825418,61.1432611 22.1286248,61.2713303 21.9887157,61.4135468 C17.3640485,59.7814208 14.2216769,55.518291 14.0680383,50.6678804 C10.9943162,49.2182696 9.21134496,47.6741761 9.46896395,46.412656 C9.72746822,45.1371385 12.0770242,44.4005228 15.6057847,44.2701716 C13.6200823,44.4880068 12.3594313,45.0059124 12.192997,45.8090161 C12.0442686,46.5342589 12.8073873,47.3916026 14.2380138,48.2585696 C14.9998937,44.0144163 18.0436443,40.518821 22.1767912,39.1412809 C26.3099381,37.7637408 30.8743355,38.7236098 34.0817532,41.6448324 C37.2891709,44.5660551 38.6288725,48.9834675 37.5759925,53.166425 C37.7450826,53.1489282 37.9106316,53.127932 38.0690982,53.106061 C39.8140021,52.8637302 40.9082188,52.3650711 41.0658002,51.6188321 C41.255252,50.6984998 40.3097637,49.7904154 38.0690982,48.6863666 L38.0292602,48.6671201 L38.0690982,48.6837421 C41.9165626,50.2995726 43.9066914,51.8611629 43.6180873,53.2740304 C43.3542713,54.5014317 41.2623343,55.2135519 38.0637865,55.4060168 L38.0637865,55.4060168 Z" id="path-1"></path>
        <filter x="-61.5%" y="-39.5%" width="176.9%" height="150.0%" filterUnits="objectBoundingBox" id="filter-2">
            <feMorphology radius="5" operator="erode" in="SourceAlpha" result="shadowSpreadOuter1"></feMorphology>
            <feOffset dx="0" dy="2" in="shadowSpreadOuter1" result="shadowOffsetOuter1"></feOffset>
            <feGaussianBlur stdDeviation="12" in="shadowOffsetOuter1" result="shadowBlurOuter1"></feGaussianBlur>
            <feColorMatrix values="0 0 0 0 0   0 0 0 0 0   0 0 0 0 0  0 0 0 0.277004076 0" type="matrix" in="shadowBlurOuter1"></feColorMatrix>
        </filter>
    </defs>
    <g id="Page-1" stroke="none" stroke-width="1" fill="none" fill-rule="evenodd">
        <g id="Desktop-HD-Copy-2" transform="translate(-653.000000, -26.000000)">
            <g id="Group-5" transform="translate(653.000000, 26.000000)">
                <rect id="Rectangle" stroke="#FFFFFF" x="0.5" y="0.5" width="134" height="134" rx="13"></rect>
                <g id="navbar_logo" opacity="0.901576451" transform="translate(42.000000, 13.000000)">
                    <g id="Tracé_892" fill-rule="nonzero">
                        <use fill="black" fill-opacity="1" filter="url(#filter-2)" xlink:href="#path-1"></use>
                        <use fill="#FFFFFF" xlink:href="#path-1"></use>
                    </g>
                    <path d="M27.5778274,43.5812037 C27.5348024,43.5447273 27.5088989,43.4965811 27.5048273,43.4455202 C27.1308617,37.5470295 26,37.8579262 26,37.8579262 C26,37.8579262 24.879384,37.5459611 24.4951728,43.4455202 C24.4911012,43.4965811 24.4651977,43.5447273 24.4221727,43.5812037 L22.8853278,44.863252 C22.7081002,45.0111847 22.6085903,45.2117969 22.6086957,45.420943 L22.6086957,46.1089756 C22.6088246,46.1698577 22.6410348,46.2276135 22.6967763,46.2669122 C22.7525178,46.3062109 22.8261526,46.3230775 22.8981348,46.313035 L24.5784186,46.0779928 C24.6504008,46.0679503 24.7240356,46.0848169 24.7797771,46.1241156 C24.8355186,46.1634143 24.8677288,46.2211701 24.8678577,46.2820522 L24.8678577,46.4594022 C24.8678577,46.5738712 24.9790955,46.6666667 25.1163143,46.6666667 L26.8836858,46.6666667 C27.0209046,46.6666667 27.1321424,46.5738712 27.1321424,46.4594022 L27.1321424,46.2820522 C27.1322713,46.2211701 27.1644815,46.1634143 27.220223,46.1241156 C27.2759645,46.0848169 27.3495993,46.0679503 27.4215815,46.0779928 L29.1018652,46.313035 C29.1738475,46.3230775 29.2474823,46.3062109 29.3032238,46.2669122 C29.3589653,46.2276135 29.3911755,46.1698577 29.3913043,46.1089756 L29.3913043,45.1741487 C29.391183,45.1192175 29.3649268,45.0665731 29.3183042,45.0277815 L27.5778274,43.5812037 Z" id="Tracé_893" fill="#FFFFFF"></path>
                </g>
                <g id="Discover-txt" transform="translate(11.000000, 94.000000)" fill="#FFFFFF">
                    <path d="M34.9267912,20.6108027 C34.9640678,20.6622101 34.9998825,20.7136175 35.0298499,20.7664937 C35.3926647,21.3849766 35.6851594,22.0424653 35.9018284,22.7265839 C36.1462519,23.470432 36.1938587,24.2653776 36.0399709,25.0333069 C35.9353973,25.478908 35.7309007,25.8946205 35.4420845,26.2487245 C35.0971412,26.6723186 34.6660014,27.0168688 34.177606,27.2592468 C33.5825445,27.5570241 32.9471788,27.7653668 32.291852,27.8776043 C31.478541,28.0140525 30.6503288,28.0365431 29.8308699,27.9444339 C29.2563137,27.9006393 28.690568,27.7770657 28.1497713,27.5772382 C27.7563642,27.429038 27.3910213,27.2144516 27.0694828,26.9427242 C26.6660965,26.6019999 26.3970488,26.1277535 26.3107957,25.6053977 C26.2617187,25.272104 26.2696288,24.9328383 26.3341849,24.6022192 C26.4026176,24.3380443 26.4948497,24.0806791 26.6097389,23.8333116 C26.7536172,23.5301192 26.9228203,23.2397291 27.1155303,22.9652611 C27.2087276,22.8667284 27.2933366,22.7603409 27.3684259,22.6472697 C27.5662093,22.3958798 27.7898939,22.1662074 28.035749,21.9620826 C28.4035886,21.6472024 28.7873396,21.3515848 29.1854742,21.0764068 C29.5458947,20.8261915 29.9210508,20.5981135 30.3088866,20.3934229 C30.4821128,20.3067647 30.8402599,20.1231669 30.8402599,20.1231669 C30.8402599,20.1231669 30.2876901,19.1486297 29.9207721,18.4017538 C29.5483831,17.6417838 29.3142182,16.8210415 29.229329,15.9782626 C29.1406123,15.090934 29.2921331,14.196005 29.6678764,13.3880646 C30.1815791,12.405148 31.0184574,11.6315035 32.0360326,11.1988443 L31.9899852,11.1988443 C32.3029035,11.0629499 32.6256855,10.951243 32.9555205,10.8646962 C33.3207745,10.7873332 33.689942,10.7299661 34.0613909,10.6928487 C34.536424,10.6491121 35.0148801,10.6602002 35.4874011,10.7258963 C36.0228676,10.7949876 36.547909,10.9296473 37.0508227,11.1268739 C37.4462734,11.2858201 37.8177409,11.49938 38.1545005,11.761388 C38.2458645,11.8737498 38.3386904,11.9817054 38.4300545,12.0793794 C38.5297751,12.1886394 38.6218466,12.304706 38.7056084,12.4267465 C39.5720431,13.4022642 39.6579515,14.8480791 38.9131876,15.9202457 C38.5741729,16.4170742 38.1266784,16.8295229 37.6048543,17.1261162 C37.0957147,17.4336524 36.5340777,17.6433387 35.9486068,17.7444736 C35.8280123,17.7664151 35.7057063,17.777475 35.5831506,17.7775212 C35.3456699,17.7920032 35.1127432,17.7075274 34.9392168,17.5439848 C34.8169437,17.4353201 34.7798407,17.2590622 34.8478527,17.1099596 C34.8717555,17.0301892 34.9200976,16.9600295 34.9859951,16.9094707 C35.2447658,16.6116374 35.4185261,16.2490134 35.4888629,15.8600256 C35.5821041,15.454976 35.5502328,15.0309911 35.3974988,14.6446081 C35.0598173,13.9537907 34.6919247,13.5865951 34.2938211,13.5430212 C33.9200969,13.4898071 33.5403259,13.5831637 33.2332672,13.8037301 C32.8825219,14.1285744 32.6549161,14.5657053 32.5893333,15.040445 C32.4690697,15.7240334 32.4985016,16.4257426 32.675581,17.0967405 C32.7295154,17.3437733 32.8076153,17.5848459 32.9087421,17.816444 C33.1194335,18.185997 33.3641416,18.5348906 33.6396545,18.8585452 C33.6725455,18.8974679 33.7047057,18.9378594 33.7346731,18.9782509 L34.9267912,20.6108027 Z M31.6252599,21.7858287 C31.056802,22.1094766 30.5186115,22.4840703 30.0172525,22.905041 C29.4989756,23.3347646 29.1024422,23.8940227 28.8675273,24.5265769 C28.7796604,24.7500448 28.7328557,24.9876708 28.7293849,25.2279206 C28.7289102,25.4081012 28.7680968,25.586158 28.8441381,25.7493384 C28.9587874,25.9503603 29.1640785,26.0822952 29.3937843,26.1025806 L29.3733187,26.1025806 C29.796374,26.2214263 30.2486186,26.1736226 30.6377972,25.9689214 C30.8975043,25.8359348 31.1375849,25.6673751 31.3511677,25.4680665 C31.4104637,25.4257978 31.4644558,25.3764805 31.5119684,25.3211883 C31.5528109,25.2743299 31.5911173,25.2252998 31.6267217,25.17431 C31.9061663,24.6649854 32.0186997,24.0801101 31.9483231,23.5028355 C31.8958279,22.9223585 31.7876375,22.3483353 31.6252599,21.7887663 L31.6252599,21.7858287 Z" id="Tracé_884-2" fill-rule="nonzero"></path>
                    <path d="M16.9881471,2.33203663 C17.1449283,3.55794239 17.1037675,4.80388047 16.8664887,6.01463292 C16.6227136,7.4760042 16.3111215,9.03971101 15.9317122,10.7057534 C15.7420076,11.4656071 15.5321411,12.3277964 15.3021128,13.2923212 C15.0720844,14.256846 14.8484713,15.2653702 14.6312732,16.3178937 L14.2656106,18.0279354 C13.94073,19.6064734 13.6834374,20.8997573 13.4937327,21.9077871 C13.3094118,22.8215229 13.2400542,23.757889 13.2875321,24.6916104 C13.2717917,24.996973 13.3131657,25.3026307 13.4091905,25.5903834 C13.4825211,25.7693122 13.593901,25.9270792 13.7343002,26.0508933 C13.7841337,26.1348695 13.8458212,26.2099308 13.9171315,26.2733619 C13.9882646,26.3369909 14.049926,26.4120203 14.0999628,26.4958305 C14.1436784,26.5765389 14.1713024,26.6662015 14.1810684,26.7590849 C14.2351388,27.0804284 14.0115256,27.387435 13.5102288,27.6801048 C12.9650868,27.9795941 12.3423569,28.0723273 11.7424016,27.9433593 C11.1904908,27.850758 10.6790209,27.5749768 10.279064,27.1543374 C9.73830447,26.6369818 9.40345129,25.91444 9.34428756,25.1372891 C8.85063842,25.9315894 8.20668531,26.6041058 7.45480193,27.1105853 C6.54402301,27.6924248 5.48247298,27.9386642 4.43052517,27.8121028 C3.78627068,27.804037 3.15024046,27.654938 2.56097226,27.3738397 C2.09139352,27.1449119 1.66444707,26.8255118 1.30108606,26.4313146 C0.977113125,26.0675151 0.715744359,25.644406 0.529208153,25.1817828 C0.340876778,24.718697 0.204505091,24.232992 0.122992798,23.7349956 C-0.0648282372,22.4833394 -0.0373342705,21.2050627 0.204098402,19.9641534 C0.442958556,18.430912 0.895052801,16.9453769 1.54509021,15.5577927 C2.05514904,14.468167 2.73575662,13.4817374 3.55692159,12.6419714 C4.23557768,11.9536513 5.04770503,11.4368992 5.93441552,11.1291852 C6.72169204,10.8548182 7.56088166,10.80198 8.37239499,10.9756819 C9.13345315,11.0922553 9.84319497,11.4573967 10.4062211,12.0220257 C10.7967024,12.4465978 11.101001,12.9542089 11.2997574,13.5125651 C11.6246381,12.1386981 11.9023217,10.9695022 12.1328082,10.0049774 C12.3632947,9.04045258 12.5596436,8.20001578 12.7218548,7.483667 C12.8845243,6.76731823 13.0064118,6.14613656 13.0875174,5.620122 C13.168623,5.09410744 13.2373566,4.56809288 13.2937181,4.04207832 L13.2937181,3.25305648 C13.2948528,3.032089 13.274348,2.81161041 13.2325452,2.5952911 C13.2040609,2.42242169 13.1417306,2.25809469 13.0497139,2.11327587 C12.9686083,1.99660347 12.8872736,1.8870995 12.8057098,1.78476396 C12.7194516,1.66647431 12.6761904,1.51827693 12.6840514,1.36800618 L12.6840514,1.14553762 C12.6796227,0.981534632 12.7383459,0.822876129 12.8462626,0.70727455 C12.9209349,0.566270757 13.0252253,0.446132761 13.1507523,0.356515781 C13.3411323,0.221988739 13.5556658,0.132285828 13.7803517,0.0932613137 C13.961057,0.0162882689 14.1560242,-0.013688985 14.3494656,0.0057570119 L14.6340225,0.0057570119 C14.9705666,0.0597307092 15.2987059,0.163019876 15.6093518,0.31276363 C16.3418559,0.605424276 16.8600628,1.31696724 16.9503436,2.15406178 L17.0314492,2.32981194 L16.9881471,2.33203663 Z M4.10610275,20.4832468 C3.90500162,21.3720833 3.84320419,22.2909654 3.92327148,23.2018126 C3.97648038,23.7095511 4.12149728,24.2010956 4.3501069,24.6485998 C4.5323372,24.9998981 4.84145275,25.2539187 5.20377775,25.3501174 C5.93562509,25.448228 6.66910627,25.1818985 7.19705107,24.626353 C7.76637086,24.0553907 8.24657415,23.3890627 8.61914848,22.6530568 C8.97933102,21.9538341 9.27846434,21.219989 9.51268479,20.4609999 C9.72942463,19.7451455 9.86482974,19.2700515 9.91890015,19.035718 L10.2440099,17.5889307 C10.3703547,16.8545803 10.3494962,16.0995552 10.182837,15.374627 C10.0937284,14.9937163 9.93480653,14.6359203 9.7154488,14.3223507 C9.4990689,14.016185 9.17643825,13.8183126 8.82191249,13.7743364 C8.38483609,13.7279191 7.94508331,13.8273121 7.56202628,14.0590962 C7.03623729,14.3651764 6.57311947,14.7826063 6.20041441,15.2863811 C5.70274679,15.9454723 5.29237837,16.6759746 4.98108101,17.4569327 C4.58729394,18.4282313 4.2938653,19.4433706 4.10610275,20.4839883 L4.10610275,20.4832468 Z" id="Tracé_885-2" fill-rule="nonzero"></path>
                    <path d="M21.4840145,13.2438821 C21.5764536,12.8061269 21.6020294,12.3524354 21.5595423,11.9040905 C21.5091904,11.6659389 21.4586252,11.4426403 21.4078466,11.2341947 C21.3605611,11.1484022 21.3468059,11.0427683 21.3700827,10.9441834 C21.3957103,10.8687226 21.4342812,10.8003271 21.4833744,10.7432902 C21.5339534,10.6831185 21.603627,10.6507823 21.6753943,10.6541721 C22.0663789,10.6257032 22.4586501,10.6332785 22.8486357,10.6768293 C23.2926764,10.7171521 23.7184314,10.9025639 24.078203,11.2122928 C24.4781236,11.5858195 24.7637678,12.103183 24.8917273,12.6857615 C25.0665382,13.6098468 25.0405576,14.5710765 24.8161995,15.4801409 C24.5891893,16.7011084 24.3873551,17.7652383 24.2106968,18.6725305 C24.0340385,19.5798227 23.8889568,20.3909479 23.7754517,21.1059063 C23.6619466,21.8203611 23.5736175,22.4602992 23.5104643,23.0257204 C23.4476866,23.5732228 23.4286143,24.1264707 23.4534984,24.6781805 C23.4369229,24.9912904 23.482282,25.304659 23.5859921,25.5935285 C23.6608061,25.7652076 23.7563156,25.9231843 23.8695414,26.0625311 C23.9702452,26.1813552 24.0647617,26.285578 24.1530908,26.3751995 C24.2484463,26.4810515 24.3087939,26.623464 24.3233484,26.776986 C24.3480977,26.9849281 24.2471805,27.2006743 24.0205971,27.4242246 C23.7599891,27.6659804 23.4558288,27.8339275 23.131545,27.9151291 C22.733412,28.0200675 22.3212922,28.027778 21.9205397,27.9377863 C21.446157,27.8292805 21.0069536,27.5663712 20.6525684,27.1787724 C20.2321256,26.7268173 19.9522258,26.1215991 19.8576061,25.4598515 C19.7267168,24.6509109 19.6822058,23.8258124 19.7251124,23.0038185 C19.7675457,22.0502069 19.8745647,21.1021287 20.0451455,20.1686563 C20.2213771,19.1863439 20.4042227,18.2485904 20.5936823,17.355396 C20.7831419,16.4622016 20.9659875,15.6510763 21.1422191,14.9220202 C21.2832648,14.3708167 21.3973842,13.8105161 21.4840145,13.2438821 L21.4840145,13.2438821 Z M23.9802729,9.71616694 C23.4550293,9.71932436 22.9668002,9.39746505 22.6937397,8.86803503 C22.3606088,8.27676295 22.2257737,7.56042345 22.3154605,6.85834759 C22.3824196,6.10688704 22.6547022,5.40151079 23.0912209,4.84866014 C23.4614497,4.32337141 24.0068711,4.01385496 24.5857756,4.00052823 C25.1187194,3.98508807 25.61751,4.30907433 25.8915108,4.84866014 C26.2129313,5.44543105 26.3406873,6.15918495 26.251228,6.85834759 C26.1842236,7.60979354 25.9119472,8.31515357 25.4754677,8.86803503 C25.1058108,9.39345384 24.5608114,9.70327158 23.9821931,9.71692218 L23.9802729,9.71616694 Z" id="Tracé_886-2" fill-rule="nonzero"></path>
                    <path d="M45.3394228,27.9815969 C44.5213782,27.9496461 43.7127701,27.7883252 42.9413705,27.503175 C42.3391109,27.2776359 41.778084,26.9471781 41.2822726,26.5259279 C40.8643597,26.164401 40.512373,25.7275638 40.2431391,25.2362994 C39.994633,24.7769999 39.8001033,24.2882684 39.6637394,23.7806303 C39.3664436,22.5122358 39.3392154,21.1915378 39.5839621,19.9110413 C39.7838324,18.4805747 40.2307034,17.0995288 40.9029923,15.8346051 C41.1821095,15.3166224 41.5102874,14.8289747 41.8826308,14.378936 C42.281882,13.8956121 42.7464636,13.4751855 43.261832,13.1308177 C43.8366936,12.751089 44.4632343,12.4636261 45.1203732,12.2781009 C45.8952993,12.0622893 46.6974017,11.9711785 47.4988192,12.0079333 C47.9252324,12.0358331 48.3473965,12.1125144 48.7576784,12.2365908 C49.1642129,12.3587169 49.5489632,12.5488132 49.8968716,12.7994401 C50.2339287,13.0397138 50.5252799,13.3429085 50.756168,13.693667 C50.9883336,14.0587803 51.1197586,14.4831974 51.1361244,14.9206785 C51.2478273,15.6166975 51.1426413,16.3316506 50.8359453,16.9610073 C50.6053713,17.3870429 50.2473711,17.7230322 49.8164181,17.9178511 C49.4440908,18.0799315 49.0391649,18.1442026 48.6373363,18.1049985 C48.3564916,18.1035537 48.0834131,18.0089095 47.8578172,17.8348308 C47.7226014,17.7236681 47.7093052,17.5294851 47.8179285,17.2522818 C47.8711134,17.1415881 47.9245237,17.0168232 47.9781593,16.877987 C48.2182957,16.4552352 48.3810503,15.9898239 48.4581754,15.5053382 C48.4903709,15.2554238 48.4768367,15.0014266 48.4182867,14.7567486 C48.3433558,14.5684906 48.1996283,14.4189206 48.018724,14.3409437 C47.499203,14.2220463 46.9555771,14.3350891 46.5198568,14.6526215 C46.0524356,15.0015593 45.6524221,15.4390768 45.340775,15.94225 C44.9875482,16.4969855 44.692875,17.089767 44.4618723,17.7103004 C44.2478447,18.2686242 44.0610096,18.8378249 43.9020788,19.4157339 C43.7538532,19.9844574 43.6338037,20.5607304 43.5424048,21.1422741 C43.4356949,21.7676828 43.4288421,22.4071253 43.5221224,23.034855 C43.6043595,23.6209048 43.8473218,24.1698212 44.2218642,24.615758 C44.7035767,25.1126833 45.3436542,25.4085594 46.0209105,25.4473679 C46.66879,25.5395573 47.3285433,25.4609329 47.9396228,25.2187103 C48.459413,25.0046922 48.9553935,24.7327032 49.4188837,24.4075038 C49.7818374,24.1534838 50.1289145,23.875721 50.4580171,23.5758939 C50.7243923,23.326364 50.9109901,23.2292725 51.0178106,23.2846194 C51.203522,23.3890279 51.289344,23.617961 51.2206343,23.8256583 C51.1940418,23.936821 51.1541532,24.0754227 51.1009683,24.2414632 C50.8163832,25.1627128 50.2820282,25.9787479 49.5622124,26.5913591 C48.9879842,27.0587879 48.3475617,27.4307024 47.6637825,27.6938402 C46.9144279,27.9465142 46.1248268,28.0442671 45.3394228,27.9815969 L45.3394228,27.9815969 Z" id="Tracé_887-2"></path>
                    <path d="M59.0687642,27.9721241 C58.3794308,27.9619701 57.6988698,27.8096927 57.0664331,27.524097 C56.5516781,27.2863469 56.0787468,26.9606812 55.667205,26.5605734 C55.2952623,26.188774 54.9827368,25.7575573 54.7414273,25.2832033 C54.5011796,24.8165559 54.3202379,24.3193833 54.2031506,23.8041831 C53.880263,22.5483752 53.792476,21.2396507 53.9445739,19.9493304 C54.0663166,18.40174 54.4148767,16.88265 54.9781526,15.4448005 C55.4121707,14.3348127 56.0483158,13.3226405 56.8515594,12.4640177 C57.5192961,11.7588733 58.3383757,11.2288368 59.2413915,10.9175281 C60.616368,10.4761672 62.1034797,10.6212342 63.3757062,11.3208283 C63.7729109,11.547292 64.1298878,11.8429277 64.4311365,12.1948982 C64.6829224,12.4910418 64.8930896,12.822847 65.0553626,13.1804062 C65.1847655,13.4676966 65.285801,13.7679216 65.3569141,14.0764605 C65.3942692,14.0716051 65.4321253,14.0795915 65.4647152,14.099203 C65.4823694,14.115793 65.50584,14.124027 65.5295414,14.1219455 L65.6154909,14.1219455 C65.9218888,14.2585419 66.1943907,14.4659367 66.4123444,14.728412 C66.8234697,15.3195556 67.0289798,16.0387579 66.9950526,16.7676556 C67.0229344,17.3128649 67.0156341,17.859407 66.973201,18.403599 C66.9159748,19.076204 66.8080849,19.743093 66.6505264,20.3981157 C66.5201301,20.990877 66.3547151,21.5746995 66.1552244,22.1462553 C65.9343254,22.7861702 65.6530066,23.4017124 65.3153962,23.9838488 C64.9560091,24.6013778 64.537482,25.179457 64.0662155,25.709246 C63.5604745,26.2765726 62.9805853,26.7670545 62.3435843,27.1662818 C61.8907309,27.4450495 61.4059365,27.6633273 60.9006531,27.815959 C60.304605,27.9857554 59.6834156,28.0387106 59.0687642,27.9721241 L59.0687642,27.9721241 Z M58.1218633,20.4868114 C57.9745356,21.4068439 57.9745356,22.3459115 58.1218633,23.2659441 C58.2146208,23.7920995 58.4048657,24.2944418 58.6819916,24.7449643 C58.9085396,25.1104846 59.2645221,25.3681977 59.6725956,25.4621109 C60.207007,25.5311606 60.7478425,25.4043771 61.2022046,25.1035376 C61.6534492,24.7981652 62.0415079,24.4020167 62.3435843,23.9383638 C62.6666988,23.445797 62.9407718,22.9202607 63.161561,22.3698899 C63.3912451,21.8028437 63.5922794,21.2651101 63.764664,20.756689 C63.8506134,20.4878222 63.9295218,20.2262835 64.0013892,19.9720729 C64.0732565,19.7178624 64.13784,19.4712327 64.1951396,19.2321838 C64.2828918,18.8112913 64.2828918,18.3757063 64.1951396,17.9548137 C64.133542,17.6877236 64.0082908,17.4410863 63.830947,17.2376671 C63.6848376,17.0805631 63.4977046,16.9714537 63.2926703,16.9238207 C63.1087512,16.8809476 62.9210083,16.8583333 62.732542,16.8563513 C62.5814165,16.8707078 62.4399559,16.7773283 62.3880158,16.6289264 C62.3591012,16.5417437 62.3591012,16.4469895 62.3880158,16.3598069 C62.4153813,15.862235 62.555666,15.3784978 62.7973683,14.9482561 C62.9805924,14.6359209 63.240922,14.3804222 63.5512471,14.2083669 C63.2691669,13.9126725 62.9097046,13.7099262 62.5176684,13.625401 C62.068092,13.5755465 61.6150359,13.6776135 61.2255129,13.9165049 C60.7049188,14.2289502 60.257189,14.6573973 59.9144195,15.1711325 C59.4466977,15.85477 59.0700985,16.6011911 58.7948913,17.3900418 C58.4398446,18.3880949 58.2132917,19.4306691 58.121135,20.4906018 L58.1218633,20.4868114 Z" id="Tracé_888-2" fill-rule="nonzero"></path>
                    <path d="M83.8888394,14.3655015 C83.8564619,14.4847841 83.8010743,14.5955881 83.7262053,14.6908545 C83.5631118,14.907268 83.4000183,14.9749278 83.2369248,14.8938338 C83.0589341,14.8520225 82.9226161,14.6995325 82.892361,14.508393 C82.8514728,14.305658 82.6677055,14.150065 82.341059,14.041614 C82.123568,13.9605441 81.8830795,13.9905495 81.6891445,14.1229523 C81.1599355,14.5695161 80.752025,15.1577943 80.5072908,15.8273918 C80.4113352,15.9952799 80.3294721,16.1718286 80.2626506,16.3549913 C80.1563488,16.62016 80.0338832,16.8776679 79.8960348,17.1258728 C79.7329413,17.5591883 79.4343194,18.2829278 79.0001691,19.2970913 C78.5660188,20.3112548 78.0432007,21.3859946 77.4317149,22.5213106 C76.8272501,23.64655 76.1391462,24.7185989 75.3739803,25.7272103 C74.760837,26.5987498 73.9658689,27.3071143 73.0516207,27.7965728 C72.7472714,27.9271877 72.4226084,27.9960343 72.0944227,27.9995521 C71.8425597,28.0027269 71.5907589,27.9890212 71.3405172,27.9585166 C70.5551352,27.8608075 69.8269085,27.4731124 69.2827826,26.8630148 C68.8977585,26.3922085 68.6128611,25.8385629 68.4475601,25.2399136 C68.3661788,24.9158024 68.3251698,24.5817322 68.3255845,24.2462678 L68.3255845,23.331762 C68.4122838,22.4874291 68.5415666,21.6486569 68.7128741,20.8190694 C68.8892908,19.9524383 69.07949,19.1273313 69.2834717,18.3437483 C69.4874534,17.5601654 69.6843142,16.8569436 69.8740539,16.2340831 C70.028018,15.7566734 70.1505198,15.2684392 70.2406698,14.7729256 C70.3191412,14.3740975 70.3328922,13.9639369 70.2813283,13.5601795 C70.2271169,13.3462086 70.1729056,13.1439621 70.1186942,12.95344 C70.0585309,12.8141074 70.0916032,12.6492986 70.2000112,12.5482143 C70.2591998,12.491124 70.3299318,12.4492559 70.4067495,12.4258405 C70.8343615,12.3997448 71.2631842,12.4063568 71.6899048,12.4456255 C72.1649488,12.4759375 72.6230716,12.6442317 73.0144078,12.9321895 C73.4288194,13.2681319 73.7292293,13.738287 73.8703042,14.271706 C74.0573894,15.1095637 74.0293044,15.9854848 73.7889871,16.8078476 C73.4894464,18.2421366 73.231483,19.4458451 73.015097,20.4189731 C72.7987109,21.392101 72.6220646,22.2584878 72.4851579,23.0181334 C72.4053452,23.5887475 72.3847775,24.1669633 72.4238256,24.7423579 C72.428687,25.1131861 72.504908,25.4790281 72.647792,25.8173419 C73.0878407,25.5430094 73.4645804,25.1674446 73.750396,24.7181763 C74.1286013,24.1601462 74.4625964,23.5696994 74.7489417,22.9529163 C75.0705194,22.2669716 75.3562526,21.562679 75.604838,20.843251 C75.8630311,20.099238 76.1007801,19.3823377 76.3180849,18.6925502 C76.5353898,18.0027627 76.7120361,17.38723 76.848024,16.845952 C76.9858495,16.3051625 77.0945019,15.8994482 77.1739813,15.6288092 C77.2236891,15.534199 77.2581618,15.4314129 77.2759721,15.3247067 C77.2884625,15.236091 77.3090027,15.1489715 77.3373045,15.0645708 C77.441275,14.6995052 77.5636574,14.3406577 77.7039203,13.9895868 C77.911186,13.4551441 78.1705667,12.9452763 78.4778104,12.4683416 C78.8130679,11.9445084 79.2423425,11.4962612 79.7409811,11.1493428 C80.284645,10.776816 80.9313783,10.6121924 81.5747493,10.6825638 C82.126588,10.736009 82.6579687,10.9311447 83.1232187,11.2511988 C83.4972345,11.5222617 83.7877614,11.9045996 83.9584412,12.3503645 C84.1593248,13.0098052 84.1346738,13.7235068 83.8888394,14.3655015 L83.8888394,14.3655015 Z" id="Tracé_889-2"></path>
                    <path d="M91.3269607,27.9812945 C90.5089802,27.946768 89.7004271,27.7719932 88.9290917,27.4629771 C88.3270698,27.2185764 87.7662516,26.8605667 87.2705881,26.4042377 C86.8527102,26.0126933 86.5008307,25.5394031 86.2318269,25.0070674 C85.9830815,24.5095547 85.7883893,23.9800536 85.6519589,23.4300106 C85.3548566,22.0558321 85.3276386,20.6250231 85.5722102,19.2377377 C85.7468403,17.6876282 86.1807465,16.1889853 86.8508935,14.8213687 C87.1299718,14.260235 87.458028,13.7319292 87.830181,13.2443119 C88.233397,12.7169022 88.704794,12.2610491 89.2284874,11.8921133 C89.8056627,11.4860668 90.4312603,11.1749898 91.0863628,10.9682888 C91.8539535,10.7336224 92.6492103,10.6348792 93.4436816,10.6755919 C94.1208,10.7013052 94.7836686,10.9018314 95.3813058,11.2617479 C95.9688086,11.6094353 96.4544701,12.141561 96.7796122,12.7938331 C97.1288862,13.5412334 97.281313,14.3857185 97.2189061,15.2276381 C97.1279403,16.3833676 96.8216392,17.5044132 96.3200431,18.517429 C95.9476587,19.419529 95.3131362,20.151032 94.5216414,20.5906985 C93.8674326,20.9131582 93.157707,21.0670513 92.444119,21.0411773 C91.803315,21.0302072 91.1789067,20.8110785 90.6457172,20.4100496 C90.2523951,20.1582862 89.932912,19.7823307 89.7265791,19.3284432 C89.5864045,19.9111068 89.4927653,20.5067547 89.4467827,21.1082536 C89.3909929,21.7272946 89.4314752,22.3525683 89.5664058,22.9559026 C89.6921582,23.5280559 89.9546731,24.0503361 90.3253706,24.4658831 C90.7902297,24.9308365 91.3827397,25.2013133 92.0034734,25.2319257 C92.6380238,25.3299124 93.2842437,25.244677 93.8816239,24.9842005 C94.4012234,24.7523245 94.8970253,24.457655 95.3603549,24.1053476 C95.7231849,23.8301551 96.0701382,23.5292292 96.3991161,23.2043901 C96.6653958,22.934052 96.8519267,22.8288641 96.9587089,22.8888263 C97.1535436,22.993399 97.2544439,23.2399095 97.198631,23.4749822 C97.1720481,23.5954148 97.1321737,23.7455744 97.0790079,23.925461 C96.7944549,24.9234949 96.2603038,25.8075581 95.5408033,26.471314 C94.9667384,26.9776496 94.3265557,27.3805715 93.6430535,27.6657307 C92.8965417,27.9396752 92.1098386,28.0468623 91.3269607,27.9812945 L91.3269607,27.9812945 Z M94.0039504,13.1993402 C93.5026608,13.0726889 92.9772753,13.1781283 92.5454945,13.4920371 C92.0800817,13.8359421 91.679521,14.2801958 91.3668351,14.799264 C91.0113735,15.3745947 90.7165251,15.9946538 90.4882472,16.646913 C90.2725742,17.2433042 90.0857684,17.8524613 89.9286543,18.4716951 L90.0084031,18.4716951 C90.7450974,18.5221915 91.4809949,18.3592414 92.1460749,17.9983494 C92.9298083,17.5652058 93.557625,16.8412545 93.9242016,15.9479468 C94.1415672,15.5045166 94.2966017,15.0257279 94.3837707,14.5286719 C94.4257118,14.2519133 94.4188219,13.968541 94.3634955,13.6947907 C94.3048052,13.4839344 94.1762591,13.3067384 94.0046262,13.2001025 L94.0039504,13.1993402 Z" id="Tracé_890-2" fill-rule="nonzero"></path>
                    <path d="M112.829812,15.8340495 C112.674798,16.7171194 112.334827,17.5511008 111.835444,18.2733275 C111.01027,19.475487 109.723586,20.2164566 108.331683,20.2910575 C107.677614,20.3392312 107.021337,20.2411397 106.404615,20.0030247 C106.299782,19.960792 106.201864,19.9010444 106.114503,19.8260045 C105.914774,19.6954247 105.802147,19.4543142 105.824392,19.2049337 C105.822749,19.0914045 105.859594,18.9810835 105.928103,18.8943983 C105.998178,18.8058882 106.059144,18.7323798 106.114503,18.6693727 C106.203403,18.6076864 106.30153,18.5627802 106.404615,18.5366075 C106.859061,18.3431018 107.274105,18.0570312 107.626727,17.6942615 C108.030251,17.3170236 108.348862,16.8470014 108.558727,16.3193548 C108.722987,15.9568706 108.827985,15.5669308 108.86916,15.1664734 C108.896152,14.9264016 108.844916,14.6837144 108.724105,14.4793951 C108.620034,14.321712 108.464945,14.21104 108.288937,14.1688597 C108.104985,14.12426 107.914892,14.1166297 107.728336,14.1463571 C107.200582,14.3200764 106.718189,14.6237232 106.319824,15.0329582 C105.690379,15.6350138 105.152303,16.3382581 104.724912,17.1174458 C103.493945,19.3086559 102.789257,21.7921455 102.67381,24.3460197 L102.67381,24.7008101 C102.655534,25.0117914 102.705198,25.3230538 102.818866,25.6099137 C102.897063,25.7761515 103.002166,25.9262393 103.129299,26.0532143 C103.240018,26.1567261 103.343495,26.2602379 103.439732,26.3637497 C103.542135,26.4794942 103.607425,26.6271501 103.626132,26.7852977 C103.653228,26.9918212 103.542743,27.2060957 103.294676,27.428121 C103.009116,27.668262 102.675883,27.8350607 102.320631,27.9156766 C101.884755,28.0199413 101.433553,28.0275994 100.994807,27.9381791 C100.475672,27.830358 99.9950661,27.5692403 99.6073181,27.1843432 C99.1423658,26.7269943 98.829634,26.1196541 98.716662,25.454646 C98.5600161,24.6457455 98.5111793,23.8171755 98.5716063,22.9936155 C98.6314513,22.0478926 98.7484885,21.1073148 98.9219824,20.1777946 C99.101375,19.2021834 99.3015565,18.2708272 99.5225271,17.3837261 C99.7434976,16.496625 99.9506867,15.6910332 100.144094,14.9669506 C100.297857,14.4206924 100.422327,13.8654739 100.516894,13.3040111 C100.618329,12.8843388 100.646364,12.4482026 100.599583,12.0176145 C100.541855,11.7770979 100.471671,11.5402049 100.389358,11.3080336 C100.333998,11.1902702 100.326991,11.10101 100.368335,11.0417532 C100.412864,10.9792793 100.461329,10.9201348 100.513391,10.8647331 C100.568765,10.8049719 100.645045,10.7728563 100.723616,10.776223 C101.116732,10.7469984 101.511268,10.7469984 101.904384,10.776223 C102.355065,10.8045609 102.794037,10.9409352 103.188863,11.1752685 C103.614383,11.443463 103.942799,11.8576418 104.120863,12.3506524 C104.359121,13.0839746 104.416093,13.870802 104.286241,14.6346628 C104.945808,13.5487226 105.748255,12.570289 106.668798,11.7295816 C107.473686,10.9488111 108.550214,10.570158 109.630878,10.6877129 C110.325084,10.7469639 110.994471,10.990872 111.578268,11.3972938 C112.077814,11.7996097 112.470573,12.3345597 112.717692,12.9492207 C113.050877,13.8713668 113.09029,14.8854673 112.829812,15.8340495 L112.829812,15.8340495 Z" id="Tracé_891-2"></path>
                </g>
            </g>
        </g>
    </g>
</svg>